Rock and Roll Hall of Fame icon Tom Petty and his iconoclastic Heartbreakers blow the roof off the house as they settle in for a full blown concert featuring songs that have gone on to become radio staples as well as deep cuts and rarities. Appearing on Chicago WTTW's Soundstage in 2003, this two-part concert is a great introduction to a man who has spent nearly 40 years as the soundtrack to our lives.    

The songs featured on Tom Petty and the Heartbreakers: Live in Concert include:
ΓÇó┬á"Baby Please Don't Go"
ΓÇó┬á"Crawling Back to You"
ΓÇó┬á"Handle With Care"
ΓÇó┬á"I Won't Back Down"
ΓÇó┬á"I'm Cryin'"
ΓÇó┬á"Angel Dream"
ΓÇó┬á"Melinda"
ΓÇó┬á"Born in Chicago"
ΓÇó┬á"Red Rooster"
ΓÇó┬á"Carol"
ΓÇó┬á"Refugee"
ΓÇó┬á"Love is a Long Road"
ΓÇó┬á"You Don't Know How It Feels"
ΓÇó┬á"Black Leather Woman"
ΓÇó┬á"I Done Somebody Wrong"
ΓÇó┬á"I Got a Woman"
ΓÇó┬á"Thirteen Days"
ΓÇó┬á"Wake Up Time"
ΓÇó┬á"Rollin' in My Sweet Baby's Arms"
ΓÇó┬á"Lost Children"
ΓÇó┬á"Two Men Talkin'"

INFO: 
Format                                   : MPEG-4
Format profile                           : Base Media
Codec ID                                 : isom
File size                                : 874 MiB  
Overall bit rate mode                    : Variable
Overall bit rate                         : 2 243 Kbps
Writing application                      : Lavf52.104.0

Video
ID                                       : 1
Format                                   : MPEG-4 Visual
Format profile                           : Simple@L3
Format settings, BVOP                    : No
Format settings, QPel                    : No
Format settings, GMC                     : No warppoints
Format settings, Matrix                  : Default (H.263)
Codec ID                                 : 20  
Bit rate                                 : 2 071 Kbps
Width                                    : 720 pixels
Height                                   : 480 pixels
Display aspect ratio                     : 16:9
Original display aspect ratio            : 16:9
Frame rate mode                          : Constant
Frame rate                               : 29.970 fps
Standard                                 : NTSC
Color space                              : YUV
Chroma subsampling                       : 4:2:0
Bit depth                                : 8 bits
Scan type                                : Progressive
Compression mode                         : Lossy
Bits/(Pixel*Frame)                       : 0.200
Stream size                              : 807 MiB (92%)
Writing library                          : XviD 1.2.1 (UTC 2008-12-04)

Audio
ID                                       : 2
Format                                   : AAC
Format/Info                              : Advanced Audio Codec
Format profile                           : LC
Codec ID                                 : 40  
Bit rate mode                            : Variable
Bit rate                                 : 167 Kbps
Channel(s)                               : 6 channels
Channel positions                        : Front: L C R, Side: L R, LFE
Sampling rate                            : 48.0 KHz
Compression mode                         : Lossy
Stream size                              : 65.0 MiB (7%)
Duration: 
Part#1- 54mn 27s 
Part#2- 54mn 27s  

SIZE: 1.70GB